<mxfile host="app.diagrams.net" modified="2024-01-11T01:15:46.230Z" agent="Mozilla/5.0 (Windows NT 10.0; Win64; x64) AppleWebKit/537.36 (KHTML, like Gecko) Chrome/120.0.0.0 Safari/537.36" version="22.1.18" etag="TKDajZ2eBuOE5rEGihGn" type="github">
  <diagram name="페이지-1" id="629cXEJNd5_ZQ7xXqbRG">
    <mxGraphModel>
      <root>
        <mxCell id="0" />
        <mxCell id="1" parent="0" />
      </root>
    </mxGraphModel>
  </diagram>
</mxfile>
